<svg xmlns="http://www.w3.org/2000/svg" xmlns:xlink="http://www.w3.org/1999/xlink" width="1200" height="3600" viewBox="0 0 1200 3600">
  <!-- 样式定义 -->
  <defs>
    <style>
      .title { font: bold 24px Arial; fill: #333; }
      .subtitle { font: bold 18px Arial; fill: #555; }
      .node { fill: #fff; stroke: #4285f4; stroke-width: 2; }
      .decision { fill: #fff; stroke: #fbbc05; stroke-width: 2; }
      .start-end { fill: #fff; stroke: #34a853; stroke-width: 2; }
      .process { fill: #fff; stroke: #4285f4; stroke-width: 2; }
      .data { fill: #fff; stroke: #ea4335; stroke-width: 2; }
      .arrow { stroke: #555; stroke-width: 1.5; fill: none; marker-end: url(#arrowhead); }
      .text { font: 14px Arial; fill: #333; }
      .note { font: italic 12px Arial; fill: #666; }
      .section { font: bold 20px Arial; fill: #333; }
    </style>
    
    <!-- 箭头标记 -->
    <marker id="arrowhead" markerWidth="10" markerHeight="7" refX="9" refY="3.5" orient="auto">
      <polygon points="0 0, 10 3.5, 0 7" fill="#555" />
    </marker>
  </defs>
  
  <!-- 标题 -->
  <text x="600" y="40" text-anchor="middle" class="title">AI简历筛选系统 - 交互流程图</text>
  
  <!-- 1. 用户认证流程 -->
  <text x="600" y="100" text-anchor="middle" class="section">1. 用户认证流程</text>
  
  <!-- 登录流程 -->
  <rect x="100" y="130" width="120" height="50" rx="5" class="start-end" />
  <text x="160" y="160" text-anchor="middle" class="text">开始</text>
  
  <rect x="100" y="220" width="120" height="50" rx="5" class="process" />
  <text x="160" y="250" text-anchor="middle" class="text">输入登录信息</text>
  
  <path d="M160 180 L160 220" class="arrow" />
  
  <polygon points="160,310 220,350 160,390 100,350" class="decision" />
  <text x="160" y="355" text-anchor="middle" class="text">验证成功?</text>
  
  <path d="M160 270 L160 310" class="arrow" />
  
  <rect x="300" y="325" width="120" height="50" rx="5" class="process" />
  <text x="360" y="355" text-anchor="middle" class="text">进入系统</text>
  
  <path d="M220 350 L300 350" class="arrow" />
  <text x="250" y="340" text-anchor="middle" class="note">是</text>
  
  <rect x="100" y="430" width="120" height="50" rx="5" class="process" />
  <text x="160" y="460" text-anchor="middle" class="text">显示错误信息</text>
  
  <path d="M160 390 L160 430" class="arrow" />
  <text x="170" y="410" text-anchor="middle" class="note">否</text>
  
  <path d="M100 455 L60 455 L60 250 L100 250" class="arrow" />
  
  <!-- 注册流程 -->
  <rect x="500" y="130" width="120" height="50" rx="5" class="start-end" />
  <text x="560" y="160" text-anchor="middle" class="text">开始注册</text>
  
  <rect x="500" y="220" width="120" height="50" rx="5" class="process" />
  <text x="560" y="250" text-anchor="middle" class="text">填写注册信息</text>
  
  <path d="M560 180 L560 220" class="arrow" />
  
  <polygon points="560,310 620,350 560,390 500,350" class="decision" />
  <text x="560" y="355" text-anchor="middle" class="text">信息验证</text>
  
  <path d="M560 270 L560 310" class="arrow" />
  
  <rect x="700" y="325" width="120" height="50" rx="5" class="process" />
  <text x="760" y="355" text-anchor="middle" class="text">创建账户</text>
  
  <path d="M620 350 L700 350" class="arrow" />
  <text x="650" y="340" text-anchor="middle" class="note">通过</text>
  
  <rect x="500" y="430" width="120" height="50" rx="5" class="process" />
  <text x="560" y="460" text-anchor="middle" class="text">显示错误信息</text>
  
  <path d="M560 390 L560 430" class="arrow" />
  <text x="570" y="410" text-anchor="middle" class="note">不通过</text>
  
  <path d="M500 455 L460 455 L460 250 L500 250" class="arrow" />
  
  <rect x="700" y="430" width="120" height="50" rx="5" class="process" />
  <text x="760" y="460" text-anchor="middle" class="text">发送验证邮件</text>
  
  <path d="M760 375 L760 430" class="arrow" />
  
  <rect x="700" y="520" width="120" height="50" rx="5" class="start-end" />
  <text x="760" y="550" text-anchor="middle" class="text">完成注册</text>
  
  <path d="M760 480 L760 520" class="arrow" />
  
  <!-- 2. 简历管理流程 -->
  <text x="600" y="620" text-anchor="middle" class="section">2. 简历管理流程</text>
  
  <!-- 简历上传流程 -->
  <rect x="100" y="650" width="120" height="50" rx="5" class="start-end" />
  <text x="160" y="680" text-anchor="middle" class="text">开始上传</text>
  
  <rect x="100" y="740" width="120" height="50" rx="5" class="process" />
  <text x="160" y="770" text-anchor="middle" class="text">选择文件</text>
  
  <path d="M160 700 L160 740" class="arrow" />
  
  <polygon points="160,830 220,870 160,910 100,870" class="decision" />
  <text x="160" y="875" text-anchor="middle" class="text">文件验证</text>
  
  <path d="M160 790 L160 830" class="arrow" />
  
  <rect x="300" y="845" width="120" height="50" rx="5" class="process" />
  <text x="360" y="875" text-anchor="middle" class="text">上传文件</text>
  
  <path d="M220 870 L300 870" class="arrow" />
  <text x="250" y="860" text-anchor="middle" class="note">通过</text>
  
  <rect x="100" y="950" width="120" height="50" rx="5" class="process" />
  <text x="160" y="980" text-anchor="middle" class="text">显示错误信息</text>
  
  <path d="M160 910 L160 950" class="arrow" />
  <text x="170" y="930" text-anchor="middle" class="note">不通过</text>
  
  <path d="M100 975 L60 975 L60 770 L100 770" class="arrow" />
  
  <rect x="300" y="950" width="120" height="50" rx="5" class="process" />
  <text x="360" y="980" text-anchor="middle" class="text">解析简历</text>
  
  <path d="M360 895 L360 950" class="arrow" />
  
  <polygon points="360,1040 420,1080 360,1120 300,1080" class="decision" />
  <text x="360" y="1085" text-anchor="middle" class="text">解析成功?</text>
  
  <path d="M360 1000 L360 1040" class="arrow" />
  
  <rect x="500" y="1055" width="120" height="50" rx="5" class="process" />
  <text x="560" y="1085" text-anchor="middle" class="text">显示简历信息</text>
  
  <path d="M420 1080 L500 1080" class="arrow" />
  <text x="450" y="1070" text-anchor="middle" class="note">是</text>
  
  <rect x="300" y="1160" width="120" height="50" rx="5" class="process" />
  <text x="360" y="1190" text-anchor="middle" class="text">手动编辑</text>
  
  <path d="M360 1120 L360 1160" class="arrow" />
  <text x="370" y="1140" text-anchor="middle" class="note">否</text>
  
  <path d="M420 1185 L560 1185 L560 1105" class="arrow" />
  
  <rect x="500" y="1160" width="120" height="50" rx="5" class="start-end" />
  <text x="560" y="1190" text-anchor="middle" class="text">完成上传</text>
  
  <path d="M560 1105 L560 1160" class="arrow" />
  
  <!-- 简历管理流程 -->
  <rect x="700" y="650" width="120" height="50" rx="5" class="start-end" />
  <text x="760" y="680" text-anchor="middle" class="text">简历列表</text>
  
  <rect x="700" y="740" width="120" height="50" rx="5" class="process" />
  <text x="760" y="770" text-anchor="middle" class="text">筛选/搜索</text>
  
  <path d="M760 700 L760 740" class="arrow" />
  
  <rect x="700" y="830" width="120" height="50" rx="5" class="process" />
  <text x="760" y="860" text-anchor="middle" class="text">查看简历详情</text>
  
  <path d="M760 790 L760 830" class="arrow" />
  
  <rect x="900" y="830" width="120" height="50" rx="5" class="process" />
  <text x="960" y="860" text-anchor="middle" class="text">编辑简历信息</text>
  
  <path d="M820 855 L900 855" class="arrow" />
  
  <rect x="700" y="920" width="120" height="50" rx="5" class="process" />
  <text x="760" y="950" text-anchor="middle" class="text">批量操作</text>
  
  <path d="M760 880 L760 920" class="arrow" />
  
  <rect x="900" y="920" width="120" height="50" rx="5" class="process" />
  <text x="960" y="950" text-anchor="middle" class="text">导出简历</text>
  
  <path d="M820 945 L900 945" class="arrow" />
  
  <!-- 3. 岗位管理流程 -->
  <text x="600" y="1260" text-anchor="middle" class="section">3. 岗位管理流程</text>
  
  <!-- 岗位创建流程 -->
  <rect x="100" y="1290" width="120" height="50" rx="5" class="start-end" />
  <text x="160" y="1320" text-anchor="middle" class="text">开始创建</text>
  
  <rect x="100" y="1380" width="120" height="50" rx="5" class="process" />
  <text x="160" y="1410" text-anchor="middle" class="text">选择模板</text>
  
  <path d="M160 1340 L160 1380" class="arrow" />
  
  <rect x="100" y="1470" width="120" height="50" rx="5" class="process" />
  <text x="160" y="1500" text-anchor="middle" class="text">填写基本信息</text>
  
  <path d="M160 1430 L160 1470" class="arrow" />
  
  <rect x="100" y="1560" width="120" height="50" rx="5" class="process" />
  <text x="160" y="1590" text-anchor="middle" class="text">设置岗位要求</text>
  
  <path d="M160 1520 L160 1560" class="arrow" />
  
  <rect x="100" y="1650" width="120" height="50" rx="5" class="process" />
  <text x="160" y="1680" text-anchor="middle" class="text">配置评估权重</text>
  
  <path d="M160 1610 L160 1650" class="arrow" />
  
  <polygon points="160,1740 220,1780 160,1820 100,1780" class="decision" />
  <text x="160" y="1785" text-anchor="middle" class="text">验证信息</text>
  
  <path d="M160 1700 L160 1740" class="arrow" />
  
  <rect x="300" y="1755" width="120" height="50" rx="5" class="process" />
  <text x="360" y="1785" text-anchor="middle" class="text">保存岗位</text>
  
  <path d="M220 1780 L300 1780" class="arrow" />
  <text x="250" y="1770" text-anchor="middle" class="note">通过</text>
  
  <rect x="100" y="1860" width="120" height="50" rx="5" class="process" />
  <text x="160" y="1890" text-anchor="middle" class="text">显示错误信息</text>
  
  <path d="M160 1820 L160 1860" class="arrow" />
  <text x="170" y="1840" text-anchor="middle" class="note">不通过</text>
  
  <path d="M100 1885 L60 1885 L60 1500 L100 1500" class="arrow" />
  
  <rect x="300" y="1860" width="120" height="50" rx="5" class="start-end" />
  <text x="360" y="1890" text-anchor="middle" class="text">完成创建</text>
  
  <path d="M360 1805 L360 1860" class="arrow" />
  
  <!-- 岗位管理流程 -->
  <rect x="500" y="1290" width="120" height="50" rx="5" class="start-end" />
  <text x="560" y="1320" text-anchor="middle" class="text">岗位列表</text>
  
  <rect x="500" y="1380" width="120" height="50" rx="5" class="process" />
  <text x="560" y="1410" text-anchor="middle" class="text">筛选/搜索</text>
  
  <path d="M560 1340 L560 1380" class="arrow" />
  
  <rect x="500" y="1470" width="120" height="50" rx="5" class="process" />
  <text x="560" y="1500" text-anchor="middle" class="text">查看岗位详情</text>
  
  <path d="M560 1430 L560 1470" class="arrow" />
  
  <rect x="700" y="1470" width="120" height="50" rx="5" class="process" />
  <text x="760" y="1500" text-anchor="middle" class="text">编辑岗位信息</text>
  
  <path d="M620 1495 L700 1495" class="arrow" />
  
  <rect x="500" y="1560" width="120" height="50" rx="5" class="process" />
  <text x="560" y="1590" text-anchor="middle" class="text">岗位状态管理</text>
  
  <path d="M560 1520 L560 1560" class="arrow" />
  
  <rect x="700" y="1560" width="120" height="50" rx="5" class="process" />
  <text x="760" y="1590" text-anchor="middle" class="text">复制岗位</text>
  
  <path d="M620 1585 L700 1585" class="arrow" />
  
  <!-- 4. AI评估流程 -->
  <text x="600" y="1940" text-anchor="middle" class="section">4. AI评估流程</text>
  
  <!-- 评估流程 -->
  <rect x="100" y="1970" width="120" height="50" rx="5" class="start-end" />
  <text x="160" y="2000" text-anchor="middle" class="text">开始评估</text>
  
  <rect x="100" y="2060" width="120" height="50" rx="5" class="process" />
  <text x="160" y="2090" text-anchor="middle" class="text">选择简历</text>
  
  <path d="M160 2020 L160 2060" class="arrow" />
  
  <rect x="100" y="2150" width="120" height="50" rx="5" class="process" />
  <text x="160" y="2180" text-anchor="middle" class="text">选择岗位</text>
  
  <path d="M160 2110 L160 2150" class="arrow" />
  
  <rect x="100" y="2240" width="120" height="50" rx="5" class="process" />
  <text x="160" y="2270" text-anchor="middle" class="text">调整评估参数</text>
  
  <path d="M160 2200 L160 2240" class="arrow" />
  
  <rect x="100" y="2330" width="120" height="50" rx="5" class="process" />
  <text x="160" y="2360" text-anchor="middle" class="text">提交评估请求</text>
  
  <path d="M160 2290 L160 2330" class="arrow" />
  
  <rect x="100" y="2420" width="120" height="50" rx="5" class="process" />
  <text x="160" y="2450" text-anchor="middle" class="text">等待评估完成</text>
  
  <path d="M160 2380 L160 2420" class="arrow" />
  
  <polygon points="160,2510 220,2550 160,2590 100,2550" class="decision" />
  <text x="160" y="2555" text-anchor="middle" class="text">评估成功?</text>
  
  <path d="M160 2470 L160 2510" class="arrow" />
  
  <rect x="300" y="2525" width="120" height="50" rx="5" class="process" />
  <text x="360" y="2555" text-anchor="middle" class="text">查看评估结果</text>
  
  <path d="M220 2550 L300 2550" class="arrow" />
  <text x="250" y="2540" text-anchor="middle" class="note">是</text>
  
  <rect x="100" y="2630" width="120" height="50" rx="5" class="process" />
  <text x="160" y="2660" text-anchor="middle" class="text">显示错误信息</text>
  
  <path d="M160 2590 L160 2630" class="arrow" />
  <text x="170" y="2610" text-anchor="middle" class="note">否</text>
  
  <path d="M100 2655 L60 2655 L60 2360 L100 2360" class="arrow" />
  
  <rect x="300" y="2630" width="120" height="50" rx="5" class="start-end" />
  <text x="360" y="2660" text-anchor="middle" class="text">完成评估</text>
  
  <path d="M360 2575 L360 2630" class="arrow" />
  
  <!-- 评估结果查看流程 -->
  <rect x="500" y="1970" width="120" height="50" rx="5" class="start-end" />
  <text x="560" y="2000" text-anchor="middle" class="text">评估列表</text>
  
  <rect x="500" y="2060" width="120" height="50" rx="5" class="process" />
  <text x="560" y="2090" text-anchor="middle" class="text">筛选/搜索</text>
  
  <path d="M560 2020 L560 2060" class="arrow" />
  
  <rect x="500" y="2150" width="120" height="50" rx="5" class="process" />
  <text x="560" y="2180" text-anchor="middle" class="text">查看评估详情</text>
  
  <path d="M560 2110 L560 2150" class="arrow" />
  
  <rect x="700" y="2150" width="120" height="50" rx="5" class="process" />
  <text x="760" y="2180" text-anchor="middle" class="text">导出评估报告</text>
  
  <path d="M620 2175 L700 2175" class="arrow" />
  
  <rect x="500" y="2240" width="120" height="50" rx="5" class="process" />
  <text x="560" y="2270" text-anchor="middle" class="text">比较多份评估</text>
  
  <path d="M560 2200 L560 2240" class="arrow" />
  
  <rect x="500" y="2330" width="120" height="50" rx="5" class="process" />
  <text x="560" y="2360" text-anchor="middle" class="text">添加人工评价</text>
  
  <path d="M560 2290 L560 2330" class="arrow" />
  
  <!-- 5. 数据分析流程 -->
  <text x="600" y="2730" text-anchor="middle" class="section">5. 数据分析流程</text>
  
  <!-- 数据分析流程 -->
  <rect x="100" y="2760" width="120" height="50" rx="5" class="start-end" />
  <text x="160" y="2790" text-anchor="middle" class="text">数据概览</text>
  
  <rect x="300" y="2760" width="120" height="50" rx="5" class="process" />
  <text x="360" y="2790" text-anchor="middle" class="text">设置时间范围</text>
  
  <path d="M220 2785 L300 2785" class="arrow" />
  
  <rect x="100" y="2850" width="120" height="50" rx="5" class="process" />
  <text x="160" y="2880" text-anchor="middle" class="text">简历分析</text>
  
  <path d="M160 2810 L160 2850" class="arrow" />
  
  <rect x="300" y="2850" width="120" height="50" rx="5" class="process" />
  <text x="360" y="2880" text-anchor="middle" class="text">筛选条件</text>
  
  <path d="M220 2875 L300 2875" class="arrow" />
  
  <rect x="100" y="2940" width="120" height="50" rx="5" class="process" />
  <text x="160" y="2970" text-anchor="middle" class="text">岗位分析</text>
  
  <path d="M160 2900 L160 2940" class="arrow" />
  
  <rect x="300" y="2940" width="120" height="50" rx="5" class="process" />
  <text x="360" y="2970" text-anchor="middle" class="text">选择岗位</text>
  
  <path d="M220 2965 L300 2965" class="arrow" />
  
  <rect x="100" y="3030" width="120" height="50" rx="5" class="process" />
  <text x="160" y="3060" text-anchor="middle" class="text">候选人分析</text>
  
  <path d="M160 2990 L160 3030" class="arrow" />
  
  <rect x="300" y="3030" width="120" height="50" rx="5" class="process" />
  <text x="360" y="3060" text-anchor="middle" class="text">筛选条件</text>
  
  <path d="M220 3055 L300 3055" class="arrow" />
  
  <rect x="100" y="3120" width="120" height="50" rx="5" class="process" />
  <text x="160" y="3150" text-anchor="middle" class="text">评估分析</text>
  
  <path d="M160 3080 L160 3120" class="arrow" />
  
  <rect x="300" y="3120" width="120" height="50" rx="5" class="process" />
  <text x="360" y="3150" text-anchor="middle" class="text">选择维度</text>
  
  <path d="M220 3145 L300 3145" class="arrow" />
  
  <rect x="500" y="2760" width="120" height="50" rx="5" class="process" />
  <text x="560" y="2790" text-anchor="middle" class="text">导出报表</text>
  
  <rect x="500" y="2850" width="120" height="50" rx="5" class="process" />
  <text x="560" y="2880" text-anchor="middle" class="text">数据可视化</text>
  
  <rect x="500" y="2940" width="120" height="50" rx="5" class="process" />
  <text x="560" y="2970" text-anchor="middle" class="text">趋势分析</text>
  
  <rect x="500" y="3030" width="120" height="50" rx="5" class="process" />
  <text x="560" y="3060" text-anchor="middle" class="text">对比分析</text>
  
  <rect x="500" y="3120" width="120" height="50" rx="5" class="process" />
  <text x="560" y="3150" text-anchor="middle" class="text">预测分析</text>
  
  <!-- 6. 系统设置流程 -->
  <text x="600" y="3220" text-anchor="middle" class="section">6. 系统设置流程</text>
  
  <!-- 系统设置流程 -->
  <rect x="100" y="3250" width="120" height="50" rx="5" class="start-end" />
  <text x="160" y="3280" text-anchor="middle" class="text">系统设置</text>
  
  <rect x="100" y="3340" width="120" height="50" rx="5" class="process" />
  <text x="160" y="3370" text-anchor="middle" class="text">用户管理</text>
  
  <path d="M160 3300 L160 3340" class="arrow" />
  
  <rect x="300" y="3340" width="120" height="50" rx="5" class="process" />
  <text x="360" y="3370" text-anchor="middle" class="text">添加/编辑用户</text>
  
  <path d="M220 3365 L300 3365" class="arrow" />
  
  <rect x="100" y="3430" width="120" height="50" rx="5" class="process" />
  <text x="160" y="3460" text-anchor="middle" class="text">角色管理</text>
  
  <path d="M160 3390 L160 3430" class="arrow" />
  
  <rect x="300" y="3430" width="120" height="50" rx="5" class="process" />
  <text x="360" y="3460" text-anchor="middle" class="text">配置权限</text>
  
  <path d="M220 3455 L300 3455" class="arrow" />
  
  <rect x="100" y="3520" width="120" height="50" rx="5" class="process" />
  <text x="160" y="3550" text-anchor="middle" class="text">部门管理</text>
  
  <path d="M160 3480 L160 3520" class="arrow" />
  
  <rect x="300" y="3520" width="120" height="50" rx="5" class="process" />
  <text x="360" y="3550" text-anchor="middle" class="text">组织架构设置</text>
  
  <path d="M220 3545 L300 3545" class="arrow" />
  
  <rect x="500" y="3250" width="120" height="50" rx="5" class="process" />
  <text x="560" y="3280" text-anchor="middle" class="text">AI模型设置</text>
  
  <rect x="700" y="3250" width="120" height="50" rx="5" class="process" />
  <text x="760" y="3280" text-anchor="middle" class="text">调整参数</text>
  
  <path d="M620 3275 L700 3275" class="arrow" />
  
  <rect x="500" y="3340" width="120" height="50" rx="5" class="process" />
  <text x="560" y="3370" text-anchor="middle" class="text">评估维度设置</text>
  
  <rect x="700" y="3340" width="120" height="50" rx="5" class="process" />
  <text x="760" y="3370" text-anchor="middle" class="text">自定义维度</text>
  
  <path d="M620 3365 L700 3365" class="arrow" />
  
  <rect x="500" y="3430" width="120" height="50" rx="5" class="process" />
  <text x="560" y="3460" text-anchor="middle" class="text">系统日志</text>
  
  <rect x="700" y="3430" width="120" height="50" rx="5" class="process" />
  <text x="760" y="3460" text-anchor="middle" class="text">查看操作记录</text>
  
  <path d="M620 3455 L700 3455" class="arrow" />
  
  <rect x="500" y="3520" width="120" height="50" rx="5" class="process" />
  <text x="560" y="3550" text-anchor="middle" class="text">系统公告</text>
  
  <rect x="700" y="3520" width="120" height="50" rx="5" class="process" />
  <text x="760" y="3550" text-anchor="middle" class="text">发布公告</text>
  
  <path d="M620 3545 L700 3545" class="arrow" />
</svg>