<svg width="1200" height="2400" xmlns="http://www.w3.org/2000/svg">
  <!-- 背景 -->
  <rect width="1200" height="2400" fill="#f5f5f5"/>
  
  <!-- 标题 -->
  <text x="600" y="50" font-family="Arial" font-size="24" text-anchor="middle" fill="#262626">AI简历筛选系统 - 页面布局示例</text>
  
  <!-- 1. 登录页面 -->
  <g transform="translate(50, 100)">
    <!-- 页面标题 -->
    <text x="0" y="30" font-family="Arial" font-size="20" fill="#262626">1. 登录页面</text>
    
    <!-- 登录框 -->
    <rect x="100" y="50" width="400" height="350" rx="4" fill="white" stroke="#d9d9d9"/>
    
    <!-- 系统标题 -->
    <text x="300" y="100" font-family="Arial" font-size="24" text-anchor="middle" fill="#262626">AI简历筛选系统</text>
    
    <!-- 表单元素 -->
    <text x="150" y="150" font-family="Arial" font-size="14" fill="#595959">用户名/邮箱</text>
    <rect x="150" y="160" width="300" height="40" rx="4" fill="white" stroke="#d9d9d9"/>
    
    <text x="150" y="230" font-family="Arial" font-size="14" fill="#595959">密码</text>
    <rect x="150" y="240" width="300" height="40" rx="4" fill="white" stroke="#d9d9d9"/>
    <rect x="420" y="240" width="30" height="40" rx="4" fill="white" stroke="#d9d9d9"/>
    <text x="435" y="265" font-family="Arial" font-size="14" text-anchor="middle" fill="#8c8c8c">👁</text>
    
    <rect x="150" y="300" width="20" height="20" rx="2" fill="white" stroke="#1890ff"/>
    <text x="180" y="315" font-family="Arial" font-size="14" fill="#595959">记住我</text>
    
    <text x="400" y="315" font-family="Arial" font-size="14" fill="#1890ff" text-anchor="end">忘记密码?</text>
    
    <rect x="150" y="340" width="300" height="40" rx="4" fill="#1890ff" stroke="none"/>
    <text x="300" y="365" font-family="Arial" font-size="16" fill="white" text-anchor="middle">登录</text>
  </g>
  
  <!-- 2. 系统主框架 -->
  <g transform="translate(600, 100)">
    <!-- 页面标题 -->
    <text x="0" y="30" font-family="Arial" font-size="20" fill="#262626">2. 系统主框架</text>
    
    <!-- 整体框架 -->
    <rect x="0" y="50" width="550" height="350" rx="0" fill="white" stroke="#d9d9d9"/>
    
    <!-- 顶部导航 -->
    <rect x="0" y="50" width="550" height="50" rx="0" fill="white" stroke="#d9d9d9"/>
    <text x="20" y="80" font-family="Arial" font-size="16" font-weight="bold" fill="#262626">AI简历筛选系统</text>
    
    <!-- 搜索框 -->
    <rect x="200" y="60" width="200" height="30" rx="16" fill="#f5f5f5" stroke="none"/>
    <text x="220" y="80" font-family="Arial" font-size="12" fill="#8c8c8c">搜索...</text>
    
    <!-- 用户信息 -->
    <circle cx="520" cy="75" r="15" fill="#1890ff"/>
    <text x="520" y="80" font-family="Arial" font-size="12" fill="white" text-anchor="middle">U</text>
    
    <!-- 侧边栏 -->
    <rect x="0" y="100" width="150" height="300" rx="0" fill="#001529" stroke="none"/>
    
    <!-- 菜单项 -->
    <rect x="0" y="100" width="150" height="40" rx="0" fill="#1890ff" stroke="none"/>
    <text x="40" y="125" font-family="Arial" font-size="14" fill="white">仪表盘</text>
    
    <text x="40" y="165" font-family="Arial" font-size="14" fill="#8c8c8c">简历管理</text>
    <text x="40" y="205" font-family="Arial" font-size="14" fill="#8c8c8c">岗位管理</text>
    <text x="40" y="245" font-family="Arial" font-size="14" fill="#8c8c8c">AI评估</text>
    <text x="40" y="285" font-family="Arial" font-size="14" fill="#8c8c8c">数据分析</text>
    <text x="40" y="325" font-family="Arial" font-size="14" fill="#8c8c8c">系统设置</text>
    
    <!-- 内容区 -->
    <rect x="150" y="100" width="400" height="300" rx="0" fill="#f0f2f5" stroke="none"/>
    
    <!-- 面包屑 -->
    <text x="170" y="125" font-family="Arial" font-size="12" fill="#8c8c8c">首页 / 仪表盘</text>
    
    <!-- 页面标题 -->
    <text x="170" y="155" font-family="Arial" font-size="18" fill="#262626">仪表盘</text>
    
    <!-- 内容卡片 -->
    <rect x="170" y="170" width="170" height="100" rx="4" fill="white" stroke="#d9d9d9"/>
    <rect x="360" y="170" width="170" height="100" rx="4" fill="white" stroke="#d9d9d9"/>
    <rect x="170" y="290" width="170" height="100" rx="4" fill="white" stroke="#d9d9d9"/>
    <rect x="360" y="290" width="170" height="100" rx="4" fill="white" stroke="#d9d9d9"/>
  </g>
  
  <!-- 3. 简历管理页面 -->
  <g transform="translate(50, 500)">
    <!-- 页面标题 -->
    <text x="0" y="30" font-family="Arial" font-size="20" fill="#262626">3. 简历管理页面</text>
    
    <!-- 整体框架 -->
    <rect x="0" y="50" width="500" height="400" rx="0" fill="white" stroke="#d9d9d9"/>
    
    <!-- 页面标题 -->
    <text x="20" y="80" font-family="Arial" font-size="18" fill="#262626">简历管理</text>
    
    <!-- 操作栏 -->
    <rect x="20" y="100" width="120" height="36" rx="4" fill="#1890ff" stroke="none"/>
    <text x="80" y="123" font-family="Arial" font-size="14" fill="white" text-anchor="middle">上传简历</text>
    
    <!-- 筛选栏 -->
    <rect x="20" y="150" width="200" height="36" rx="4" fill="white" stroke="#d9d9d9"/>
    <text x="40" y="173" font-family="Arial" font-size="14" fill="#8c8c8c">搜索简历...</text>
    
    <rect x="230" y="150" width="100" height="36" rx="4" fill="white" stroke="#d9d9d9"/>
    <text x="280" y="173" font-family="Arial" font-size="14" fill="#595959" text-anchor="middle">状态</text>
    
    <rect x="340" y="150" width="100" height="36" rx="4" fill="white" stroke="#d9d9d9"/>
    <text x="390" y="173" font-family="Arial" font-size="14" fill="#595959" text-anchor="middle">岗位</text>
    
    <!-- 表格 -->
    <rect x="20" y="200" width="460" height="40" rx="0" fill="#fafafa" stroke="#d9d9d9"/>
    <text x="40" y="225" font-family="Arial" font-size="14" fill="#262626">候选人</text>
    <text x="150" y="225" font-family="Arial" font-size="14" fill="#262626">文件名</text>
    <text x="250" y="225" font-family="Arial" font-size="14" fill="#262626">上传时间</text>
    <text x="350" y="225" font-family="Arial" font-size="14" fill="#262626">状态</text>
    <text x="450" y="225" font-family="Arial" font-size="14" fill="#262626">操作</text>
    
    <!-- 表格行 -->
    <rect x="20" y="240" width="460" height="40" rx="0" fill="white" stroke="#d9d9d9"/>
    <text x="40" y="265" font-family="Arial" font-size="14" fill="#595959">张三</text>
    <text x="150" y="265" font-family="Arial" font-size="14" fill="#595959">张三简历.pdf</text>
    <text x="250" y="265" font-family="Arial" font-size="14" fill="#595959">2023-06-01</text>
    <rect x="350" y="250" width="60" height="20" rx="10" fill="#e6f7ff" stroke="none"/>
    <text x="380" y="265" font-family="Arial" font-size="12" fill="#1890ff" text-anchor="middle">已完成</text>
    <text x="450" y="265" font-family="Arial" font-size="14" fill="#1890ff">查看</text>
    
    <rect x="20" y="280" width="460" height="40" rx="0" fill="white" stroke="#d9d9d9"/>
    <text x="40" y="305" font-family="Arial" font-size="14" fill="#595959">李四</text>
    <text x="150" y="305" font-family="Arial" font-size="14" fill="#595959">李四简历.docx</text>
    <text x="250" y="305" font-family="Arial" font-size="14" fill="#595959">2023-06-02</text>
    <rect x="350" y="290" width="60" height="20" rx="10" fill="#fff7e6" stroke="none"/>
    <text x="380" y="305" font-family="Arial" font-size="12" fill="#faad14" text-anchor="middle">处理中</text>
    <text x="450" y="305" font-family="Arial" font-size="14" fill="#1890ff">查看</text>
    
    <rect x="20" y="320" width="460" height="40" rx="0" fill="white" stroke="#d9d9d9"/>
    <text x="40" y="345" font-family="Arial" font-size="14" fill="#595959">王五</text>
    <text x="150" y="345" font-family="Arial" font-size="14" fill="#595959">王五简历.pdf</text>
    <text x="250" y="345" font-family="Arial" font-size="14" fill="#595959">2023-06-03</text>
    <rect x="350" y="330" width="60" height="20" rx="10" fill="#f6ffed" stroke="none"/>
    <text x="380" y="345" font-family="Arial" font-size="12" fill="#52c41a" text-anchor="middle">已评估</text>
    <text x="450" y="345" font-family="Arial" font-size="14" fill="#1890ff">查看</text>
    
    <!-- 分页 -->
    <rect x="200" y="380" width="100" height="30" rx="4" fill="white" stroke="#d9d9d9"/>
    <text x="250" y="400" font-family="Arial" font-size="14" fill="#595959" text-anchor="middle">1 / 10</text>
  </g>
  
  <!-- 4. 简历详情页面 -->
  <g transform="translate(600, 500)">
    <!-- 页面标题 -->
    <text x="0" y="30" font-family="Arial" font-size="20" fill="#262626">4. 简历详情页面</text>
    
    <!-- 整体框架 -->
    <rect x="0" y="50" width="550" height="400" rx="0" fill="white" stroke="#d9d9d9"/>
    
    <!-- 返回按钮 -->
    <text x="20" y="80" font-family="Arial" font-size="14" fill="#1890ff">← 返回</text>
    
    <!-- 页面标题 -->
    <text x="100" y="80" font-family="Arial" font-size="18" fill="#262626">简历详情</text>
    
    <!-- 基本信息卡片 -->
    <rect x="20" y="100" width="510" height="80" rx="4" fill="white" stroke="#d9d9d9"/>
    <text x="40" y="130" font-family="Arial" font-size="18" font-weight="bold" fill="#262626">张三</text>
    <text x="40" y="155" font-family="Arial" font-size="14" fill="#595959">男 | 28岁 | 本科 | 5年工作经验</text>
    <text x="300" y="130" font-family="Arial" font-size="14" fill="#595959">电话: 13800138000</text>
    <text x="300" y="155" font-family="Arial" font-size="14" fill="#595959">邮箱: zhangsan@example.com</text>
    
    <!-- 标签页 -->
    <rect x="20" y="190" width="510" height="40" rx="0" fill="white" stroke="#d9d9d9"/>
    <rect x="20" y="190" width="100" height="40" rx="0" fill="white" stroke="#1890ff" stroke-width="2"/>
    <text x="70" y="215" font-family="Arial" font-size="14" fill="#1890ff" text-anchor="middle">简历预览</text>
    <text x="180" y="215" font-family="Arial" font-size="14" fill="#595959" text-anchor="middle">结构化信息</text>
    <text x="290" y="215" font-family="Arial" font-size="14" fill="#595959" text-anchor="middle">AI评估</text>
    <text x="400" y="215" font-family="Arial" font-size="14" fill="#595959" text-anchor="middle">操作记录</text>
    
    <!-- 内容区 -->
    <rect x="20" y="230" width="510" height="200" rx="4" fill="#fafafa" stroke="#d9d9d9"/>
    <rect x="70" y="250" width="410" height="160" rx="4" fill="white" stroke="#d9d9d9"/>
    <text x="275" y="330" font-family="Arial" font-size="14" fill="#8c8c8c" text-anchor="middle">[简历预览内容]</text>
    
    <!-- 操作按钮 -->
    <rect x="380" y="450" width="70" height="32" rx="4" fill="white" stroke="#d9d9d9"/>
    <text x="415" y="470" font-family="Arial" font-size="14" fill="#595959" text-anchor="middle">导出</text>
    
    <rect x="460" y="450" width="70" height="32" rx="4" fill="#1890ff" stroke="none"/>
    <text x="495" y="470" font-family="Arial" font-size="14" fill="white" text-anchor="middle">评估</text>
  </g>
  
  <!-- 5. 岗位管理页面 -->
  <g transform="translate(50, 950)">
    <!-- 页面标题 -->
    <text x="0" y="30" font-family="Arial" font-size="20" fill="#262626">5. 岗位管理页面</text>
    
    <!-- 整体框架 -->
    <rect x="0" y="50" width="500" height="350" rx="0" fill="white" stroke="#d9d9d9"/>
    
    <!-- 页面标题 -->
    <text x="20" y="80" font-family="Arial" font-size="18" fill="#262626">岗位管理</text>
    
    <!-- 操作栏 -->
    <rect x="20" y="100" width="120" height="36" rx="4" fill="#1890ff" stroke="none"/>
    <text x="80" y="123" font-family="Arial" font-size="14" fill="white" text-anchor="middle">创建岗位</text>
    
    <!-- 筛选栏 -->
    <rect x="20" y="150" width="200" height="36" rx="4" fill="white" stroke="#d9d9d9"/>
    <text x="40" y="173" font-family="Arial" font-size="14" fill="#8c8c8c">搜索岗位...</text>
    
    <rect x="230" y="150" width="100" height="36" rx="4" fill="white" stroke="#d9d9d9"/>
    <text x="280" y="173" font-family="Arial" font-size="14" fill="#595959" text-anchor="middle">部门</text>
    
    <rect x="340" y="150" width="100" height="36" rx="4" fill="white" stroke="#d9d9d9"/>
    <text x="390" y="173" font-family="Arial" font-size="14" fill="#595959" text-anchor="middle">状态</text>
    
    <!-- 表格 -->
    <rect x="20" y="200" width="460" height="40" rx="0" fill="#fafafa" stroke="#d9d9d9"/>
    <text x="40" y="225" font-family="Arial" font-size="14" fill="#262626">岗位名称</text>
    <text x="150" y="225" font-family="Arial" font-size="14" fill="#262626">部门</text>
    <text x="250" y="225" font-family="Arial" font-size="14" fill="#262626">简历数</text>
    <text x="350" y="225" font-family="Arial" font-size="14" fill="#262626">状态</text>
    <text x="450" y="225" font-family="Arial" font-size="14" fill="#262626">操作</text>
    
    <!-- 表格行 -->
    <rect x="20" y="240" width="460" height="40" rx="0" fill="white" stroke="#d9d9d9"/>
    <text x="40" y="265" font-family="Arial" font-size="14" fill="#595959">前端开发工程师</text>
    <text x="150" y="265" font-family="Arial" font-size="14" fill="#595959">技术部</text>
    <text x="250" y="265" font-family="Arial" font-size="14" fill="#595959">12</text>
    <rect x="350" y="250" width="60" height="20" rx="10" fill="#f6ffed" stroke="none"/>
    <text x="380" y="265" font-family="Arial" font-size="12" fill="#52c41a" text-anchor="middle">招聘中</text>
    <text x="450" y="265" font-family="Arial" font-size="14" fill="#1890ff">查看</text>
    
    <rect x="20" y="280" width="460" height="40" rx="0" fill="white" stroke="#d9d9d9"/>
    <text x="40" y="305" font-family="Arial" font-size="14" fill="#595959">产品经理</text>
    <text x="150" y="305" font-family="Arial" font-size="14" fill="#595959">产品部</text>
    <text x="250" y="305" font-family="Arial" font-size="14" fill="#595959">8</text>
    <rect x="350" y="290" width="60" height="20" rx="10" fill="#f6ffed" stroke="none"/>
    <text x="380" y="305" font-family="Arial" font-size="12" fill="#52c41a" text-anchor="middle">招聘中</text>
    <text x="450" y="305" font-family="Arial" font-size="14" fill="#1890ff">查看</text>
    
    <rect x="20" y="320" width="460" height="40" rx="0" fill="white" stroke="#d9d9d9"/>
    <text x="40" y="345" font-family="Arial" font-size="14" fill="#595959">UI设计师</text>
    <text x="150" y="345" font-family="Arial" font-size="14" fill="#595959">设计部</text>
    <text x="250" y="345" font-family="Arial" font-size="14" fill="#595959">5</text>
    <rect x="350" y="330" width="60" height="20" rx="10" fill="#fff7e6" stroke="none"/>
    <text x="380" y="345" font-family="Arial" font-size="12" fill="#faad14" text-anchor="middle">已暂停</text>
    <text x="450" y="345" font-family="Arial" font-size="14" fill="#1890ff">查看</text>
  </g>
  
  <!-- 6. 岗位详情/编辑页面 -->
  <g transform="translate(600, 950)">
    <!-- 页面标题 -->
    <text x="0" y="30" font-family="Arial" font-size="20" fill="#262626">6. 岗位详情/编辑页面</text>
    
    <!-- 整体框架 -->
    <rect x="0" y="50" width="550" height="350" rx="0" fill="white" stroke="#d9d9d9"/>
    
    <!-- 返回按钮 -->
    <text x="20" y="80" font-family="Arial" font-size="14" fill="#1890ff">← 返回</text>
    
    <!-- 页面标题 -->
    <text x="100" y="80" font-family="Arial" font-size="18" fill="#262626">编辑岗位</text>
    
    <!-- 标签页 -->
    <rect x="20" y="100" width="510" height="40" rx="0" fill="white" stroke="#d9d9d9"/>
    <rect x="20" y="100" width="100" height="40" rx="0" fill="white" stroke="#1890ff" stroke-width="2"/>
    <text x="70" y="125" font-family="Arial" font-size="14" fill="#1890ff" text-anchor="middle">基本信息</text>
    <text x="180" y="125" font-family="Arial" font-size="14" fill="#595959" text-anchor="middle">岗位要求</text>
    <text x="290" y="125" font-family="Arial" font-size="14" fill="#595959" text-anchor="middle">评估设置</text>
    <text x="400" y="125" font-family="Arial" font-size="14" fill="#595959" text-anchor="middle">相关简历</text>
    
    <!-- 表单 -->
    <text x="40" y="170" font-family="Arial" font-size="14" fill="#595959">岗位名称</text>
    <rect x="40" y="180" width="470" height="36" rx="4" fill="white" stroke="#d9d9d9"/>
    <text x="50" y="203" font-family="Arial" font-size="14" fill="#262626">前端开发工程师</text>
    
    <text x="40" y="240" font-family="Arial" font-size="14" fill="#595959">部门</text>
    <rect x="40" y="250" width="220" height="36" rx="4" fill="white" stroke="#d9d9d9"/>
    <text x="50" y="273" font-family="Arial" font-size="14" fill="#262626">技术部</text>
    
    <text x="290" y="240" font-family="Arial" font-size="14" fill="#595959">工作地点</text>
    <rect x="290" y="250" width="220" height="36" rx="4" fill="white" stroke="#d9d9d9"/>
    <text x="300" y="273" font-family="Arial" font-size="14" fill="#262626">北京</text>
    
    <text x="40" y="310" font-family="Arial" font-size="14" fill="#595959">招聘人数</text>
    <rect x="40" y="320" width="100" height="36" rx="4" fill="white" stroke="#d9d9d9"/>
    <text x="50" y="343" font-family="Arial" font-size="14" fill="#262626">2</text>
    
    <text x="170" y="310" font-family="Arial" font-size="14" fill="#595959">状态</text>
    <rect x="170" y="320" width="100" height="36" rx="4" fill="white" stroke="#d9d9d9"/>
    <text x="180" y="343" font-family="Arial" font-size="14" fill="#262626">招聘中</text>
    
    <!-- 操作按钮 -->
    <rect x="380" y="350" width="70" height="32" rx="4" fill="white" stroke="#d9d9d9"/>
    <text x="415" y="370" font-family="Arial" font-size="14" fill="#595959" text-anchor="middle">取消</text>
    
    <rect x="460" y="350" width="70" height="32" rx="4" fill="#1890ff" stroke="none"/>
    <text x="495" y="370" font-family="Arial" font-size="14" fill="white" text-anchor="middle">保存</text>
  </g>
  
  <!-- 7. AI评估页面 -->
  <g transform="translate(50, 1350)">
    <!-- 页面标题 -->
    <text x="0" y="30" font-family="Arial" font-size="20" fill="#262626">7. AI评估页面</text>
    
    <!-- 整体框架 -->
    <rect x="0" y="50" width="500" height="400" rx="0" fill="white" stroke="#d9d9d9"/>
    
    <!-- 页面标题 -->
    <text x="20" y="80" font-family="Arial" font-size="18" fill="#262626">AI评估</text>
    
    <!-- 评估创建卡片 -->
    <rect x="20" y="100" width="460" height="150" rx="4" fill="white" stroke="#d9d9d9"/>
    <text x="40" y="125" font-family="Arial" font-size="16" fill="#262626">创建评估任务</text>
    
    <text x="40" y="155" font-family="Arial" font-size="14" fill="#595959">选择简历</text>
    <rect x="40" y="165" width="200" height="36" rx="4" fill="white" stroke="#d9d9d9"/>
    <text x="50" y="188" font-family="Arial" font-size="14" fill="#8c8c8c">选择简历...</text>
    
    <text x="260" y="155" font-family="Arial" font-size="14" fill="#595959">选择岗位</text>
    <rect x="260" y="165" width="200" height="36" rx="4" fill="white" stroke="#d9d9d9"/>
    <text x="270" y="188" font-family="Arial" font-size="14" fill="#8c8c8c">选择岗位...</text>
    
    <rect x="360" y="210" width="100" height="36" rx="4" fill="#1890ff" stroke="none"/>
    <text x="410" y="233" font-family="Arial" font-size="14" fill="white" text-anchor="middle">开始评估</text>
    
    <!-- 评估结果列表 -->
    <text x="20" y="280" font-family="Arial" font-size="16" fill="#262626">评估结果</text>
    
    <!-- 表格 -->
    <rect x="20" y="300" width="460" height="40" rx="0" fill="#fafafa" stroke="#d9d9d9"/>
    <text x="40" y="325" font-family="Arial" font-size="14" fill="#262626">候选人</text>
    <text x="120" y="325" font-family="Arial" font-size="14" fill="#262626">岗位</text>
    <text x="220" y="325" font-family="Arial" font-size="14" fill="#262626">评分</text>
    <text x="300" y="325" font-family="Arial" font-size="14" fill="#262626">匹配度</text>
    <text x="400" y="325" font-family="Arial" font-size="14" fill="#262626">操作</text>
    
    <!-- 表格行 -->
    <rect x="20" y="340" width="460" height="40" rx="0" fill="white" stroke="#d9d9d9"/>
    <text x="40" y="365" font-family="Arial" font-size="14" fill="#595959">张三</text>
    <text x="120" y="365" font-family="Arial" font-size="14" fill="#595959">前端开发</text>
    <text x="220" y="365" font-family="Arial" font-size="14" fill="#595959">85</text>
    <rect x="300" y="355" width="80" height="10" rx="5" fill="#f5f5f5" stroke="none"/>
    <rect x="300" y="355" width="64" height="10" rx="5" fill="#52c41a" stroke="none"/>
    <text x="390" y="365" font-family="Arial" font-size="14" fill="#595959">80%</text>
    <text x="440" y="365" font-family="Arial" font-size="14" fill="#1890ff">查看</text>
    
    <rect x="20" y="380" width="460" height="40" rx="0" fill="white" stroke="#d9d9d9"/>
    <text x="40" y="405" font-family="Arial" font-size="14" fill="#595959">李四</text>
    <text x="120" y="405" font-family="Arial" font-size="14" fill="#595959">产品经理</text>
    <text x="220" y="405" font-family="Arial" font-size="14" fill="#595959">92</text>
    <rect x="300" y="395" width="80" height="10" rx="5" fill="#f5f5f5" stroke="none"/>
    <rect x="300" y="395" width="72" height="10" rx="5" fill="#52c41a" stroke="none"/>
    <text x="390" y="405" font-family="Arial" font-size="14" fill="#595959">90%</text>
    <text x="440" y="405" font-family="Arial" font-size="14" fill="#1890ff">查看</text>
  </g>
  
  <!-- 8. 数据分析页面 -->
  <g transform="translate(600, 1350)">
    <!-- 页面标题 -->
    <text x="0" y="30" font-family="Arial" font-size="20" fill="#262626">8. 数据分析页面</text>
    
    <!-- 整体框架 -->
    <rect x="0" y="50" width="550" height="400" rx="0" fill="white" stroke="#d9d9d9"/>
    
    <!-- 页面标题 -->
    <text x="20" y="80" font-family="Arial" font-size="18" fill="#262626">数据分析</text>
    
    <!-- 时间筛选 -->
    <rect x="350" y="70" width="180" height="36" rx="4" fill="white" stroke="#d9d9d9"/>
    <text x="440" y="93" font-family="Arial" font-size="14" fill="#595959" text-anchor="middle">最近30天</text>
    
    <!-- 标签页 -->
    <rect x="20" y="100" width="510" height="40" rx="0" fill="white" stroke="#d9d9d9"/>
    <rect x="20" y="100" width="100" height="40" rx="0" fill="white" stroke="#1890ff" stroke-width="2"/>
    <text x="70" y="125" font-family="Arial" font-size="14" fill="#1890ff" text-anchor="middle">简历分析</text>
    <text x="180" y="125" font-family="Arial" font-size="14" fill="#595959" text-anchor="middle">岗位分析</text>
    <text x="290" y="125" font-family="Arial" font-size="14" fill="#595959" text-anchor="middle">评估分析</text>
    <text x="400" y="125" font-family="Arial" font-size="14" fill="#595959" text-anchor="middle">候选人画像</text>
    
    <!-- 数据卡片 -->
    <rect x="20" y="150" width="160" height="100" rx="4" fill="white" stroke="#d9d9d9"/>
    <text x="40" y="175" font-family="Arial" font-size="14" fill="#8c8c8c">简历总数</text>
    <text x="40" y="205" font-family="Arial" font-size="24" fill="#262626">128</text>
    <text x="80" y="205" font-family="Arial" font-size="14" fill="#52c41a">↑ 12%</text>
    
    <rect x="190" y="150" width="160" height="100" rx="4" fill="white" stroke="#d9d9d9"/>
    <text x="210" y="175" font-family="Arial" font-size="14" fill="#8c8c8c">评估完成数</text>
    <text x="210" y="205" font-family="Arial" font-size="24" fill="#262626">98</text>
    <text x="250" y="205" font-family="Arial" font-size="14" fill="#52c41a">↑ 8%</text>
    
    <rect x="360" y="150" width="160" height="100" rx="4" fill="white" stroke="#d9d9d9"/>
    <text x="380" y="175" font-family="Arial" font-size="14" fill="#8c8c8c">平均匹配度</text>
    <text x="380" y="205" font-family="Arial" font-size="24" fill="#262626">76%</text>
    <text x="430" y="205" font-family="Arial" font-size="14" fill="#f5222d">↓ 3%</text>
    
    <!-- 图表区域 -->
    <rect x="20" y="260" width="250" height="180" rx="4" fill="white" stroke="#d9d9d9"/>
    <text x="40" y="285" font-family="Arial" font-size="16" fill="#262626">简历来源分布</text>
    <!-- 简化的饼图 -->
    <circle cx="145" cy="350" r="70" fill="none" stroke="#d9d9d9"/>
    <path d="M145,350 L145,280 A70,70 0 0,1 215,350 Z" fill="#1890ff"/>
    <path d="M145,350 L215,350 A70,70 0 0,1 145,420 Z" fill="#13c2c2"/>
    <path d="M145,350 L145,420 A70,70 0 0,1 75,350 Z" fill="#52c41a"/>
    <path d="M145,350 L75,350 A70,70 0 0,1 145,280 Z" fill="#faad14"/>
    
    <rect x="280" y="260" width="250" height="180" rx="4" fill="white" stroke="#d9d9d9"/>
    <text x="300" y="285" font-family="Arial" font-size="16" fill="#262626">简历数量趋势</text>
    <!-- 简化的折线图 -->
    <polyline points="300,380 320,370 340,375 360,350 380,340 400,360 420,330 440,320 460,335 480,310" 
              fill="none" stroke="#1890ff" stroke-width="2"/>
    <polyline points="300,400 320,390 340,395 360,380 380,385 400,375 420,365 440,370 460,355 480,350" 
              fill="none" stroke="#52c41a" stroke-width="2"/>
  </g>
  
  <!-- 9. 系统设置页面 -->
  <g transform="translate(50, 1800)">
    <!-- 页面标题 -->
    <text x="0" y="30" font-family="Arial" font-size="20" fill="#262626">9. 系统设置页面</text>
    
    <!-- 整体框架 -->
    <rect x="0" y="50" width="500" height="350" rx="0" fill="white" stroke="#d9d9d9"/>
    
    <!-- 页面标题 -->
    <text x="20" y="80" font-family="Arial" font-size="18" fill="#262626">系统设置</text>
    
    <!-- 左侧菜单 -->
    <rect x="20" y="100" width="150" height="280" rx="4" fill="white" stroke="#d9d9d9"/>
    <rect x="20" y="100" width="150" height="40" rx="0" fill="#e6f7ff" stroke="none"/>
    <text x="40" y="125" font-family="Arial" font-size="14" fill="#1890ff">用户管理</text>
    <text x="40" y="165" font-family="Arial" font-size="14" fill="#595959">角色权限</text>
    <text x="40" y="205" font-family="Arial" font-size="14" fill="#595959">部门管理</text>
    <text x="40" y="245" font-family="Arial" font-size="14" fill="#595959">AI模型配置</text>
    <text x="40" y="285" font-family="Arial" font-size="14" fill="#595959">系统参数</text>
    <text x="40" y="325" font-family="Arial" font-size="14" fill="#595959">界面设置</text>
    
    <!-- 内容区 -->
    <rect x="180" y="100" width="300" height="280" rx="4" fill="white" stroke="#d9d9d9"/>
    <text x="200" y="125" font-family="Arial" font-size="16" fill="#262626">用户管理</text>
    
    <rect x="200" y="140" width="260" height="36" rx="4" fill="#1890ff" stroke="none"/>
    <text x="240" y="163" font-family="Arial" font-size="14" fill="white">添加用户</text>
    
    <!-- 表格 -->
    <rect x="200" y="180" width="260" height="30" rx="0" fill="#fafafa" stroke="#d9d9d9"/>
    <text x="220" y="200" font-family="Arial" font-size="14" fill="#262626">用户名</text>
    <text x="300" y="200" font-family="Arial" font-size="14" fill="#262626">角色</text>
    <text x="380" y="200" font-family="Arial" font-size="14" fill="#262626">状态</text>
    
    <rect x="200" y="210" width="260" height="30" rx="0" fill="white" stroke="#d9d9d9"/>
    <text x="220" y="230" font-family="Arial" font-size="14" fill="#595959">admin</text>
    <text x="300" y="230" font-family="Arial" font-size="14" fill="#595959">管理员</text>
    <rect x="380" y="215" width="40" height="20" rx="10" fill="#f6ffed" stroke="none"/>
    <text x="400" y="230" font-family="Arial" font-size="12" fill="#52c41a" text-anchor="middle">启用</text>
    
    <rect x="200" y="240" width="260" height="30" rx="0" fill="white" stroke="#d9d9d9"/>
    <text x="220" y="260" font-family="Arial" font-size="14" fill="#595959">manager</text>
    <text x="300" y="260" font-family="Arial" font-size="14" fill="#595959">经理</text>
    <rect x="380" y="245" width="40" height="20" rx="10" fill="#f6ffed" stroke="none"/>
    <text x="400" y="260" font-family="Arial" font-size="12" fill="#52c41a" text-anchor="middle">启用</text>
    
    <rect x="200" y="270" width="260" height="30" rx="0" fill="white" stroke="#d9d9d9"/>
    <text x="220" y="290" font-family="Arial" font-size="14" fill="#595959">user1</text>
    <text x="300" y="290" font-family="Arial" font-size="14" fill="#595959">用户</text>
    <rect x="380" y="275" width="40" height="20" rx="10" fill="#fff1f0" stroke="none"/>
    <text x="400" y="290" font-family="Arial" font-size="12" fill="#f5222d" text-anchor="middle">禁用</text>
  </g>
  
  <!-- 10. 个人中心页面 -->
  <g transform="translate(600, 1800)">
    <!-- 页面标题 -->
    <text x="0" y="30" font-family="Arial" font-size="20" fill="#262626">10. 个人中心页面</text>
    
    <!-- 整体框架 -->
    <rect x="0" y="50" width="550" height="350" rx="0" fill="white" stroke="#d9d9d9"/>
    
    <!-- 页面标题 -->
    <text x="20" y="80" font-family="Arial" font-size="18" fill="#262626">个人中心</text>
    
    <!-- 个人信息卡片 -->
    <rect x="20" y="100" width="510" height="120" rx="4" fill="white" stroke="#d9d9d9"/>
    
    <!-- 头像 -->
    <circle cx="70" cy="160" r="40" fill="#1890ff"/>
    <text x="70" y="165" font-family="Arial" font-size="24" fill="white" text-anchor="middle">A</text>
    
    <!-- 基本信息 -->
    <text x="130" y="130" font-family="Arial" font-size="18" font-weight="bold" fill="#262626">Admin User</text>
    <text x="130" y="155" font-family="Arial" font-size="14" fill="#595959">管理员</text>
    <text x="130" y="180" font-family="Arial" font-size="14" fill="#595959">admin@example.com</text>
    
    <!-- 编辑按钮 -->
    <rect x="450" y="120" width="60" height="32" rx="4" fill="white" stroke="#d9d9d9"/>
    <text x="480" y="140" font-family="Arial" font-size="14" fill="#595959" text-anchor="middle">编辑</text>
    
    <!-- 标签页 -->
    <rect x="20" y="230" width="510" height="40" rx="0" fill="white" stroke="#d9d9d9"/>
    <rect x="20" y="230" width="100" height="40" rx="0" fill="white" stroke="#1890ff" stroke-width="2"/>
    <text x="70" y="255" font-family="Arial" font-size="14" fill="#1890ff" text-anchor="middle">基本设置</text>
    <text x="180" y="255" font-family="Arial" font-size="14" fill="#595959" text-anchor="middle">安全设置</text>
    <text x="290" y="255" font-family="Arial" font-size="14" fill="#595959" text-anchor="middle">通知设置</text>
    <text x="400" y="255" font-family="Arial" font-size="14" fill="#595959" text-anchor="middle">操作记录</text>
    
    <!-- 表单 -->
    <text x="40" y="300" font-family="Arial" font-size="14" fill="#595959">昵称</text>
    <rect x="40" y="310" width="220" height="36" rx="4" fill="white" stroke="#d9d9d9"/>
    <text x="50" y="333" font-family="Arial" font-size="14" fill="#262626">Admin User</text>
    
    <text x="290" y="300" font-family="Arial" font-size="14" fill="#595959">职位</text>
    <rect x="290" y="310" width="220" height="36" rx="4" fill="white" stroke="#d9d9d9"/>
    <text x="300" y="333" font-family="Arial" font-size="14" fill="#262626">系统管理员</text>
    
    <!-- 保存按钮 -->
    <rect x="450" y="360" width="60" height="32" rx="4" fill="#1890ff" stroke="none"/>
    <text x="480" y="380" font-family="Arial" font-size="14" fill="white" text-anchor="middle">保存</text>
  </g>
</svg>